<svg xmlns="http://www.w3.org/2000/svg" viewBox="0 0 512 512" width="32" height="32">
  <polygon fill="#A6A5AB" points="482.075,167.256 448.683,167.256 448.683,95.208 63.317,95.208 63.317,167.256 29.925,167.256 29.925,61.816 482.075,61.816"/>
  <polygon fill="#7F7F80" points="482.075,167.256 448.683,167.256 448.683,95.208 256.557,95.208 256,61.816 482.075,61.816"/>
  <rect x="239.304" y="127.154" fill="#CA3486" width="33.391" height="35.093"/>
  <rect x="183.029" y="127.154" fill="#E694C4" width="33.391" height="35.093"/>
  <rect x="295.58" y="127.154" fill="#952967" width="33.391" height="35.093"/>
  <path fill="#F1D849" d="M512,450.184H0V150.56h512V450.184z"/>
  <path fill="#E8BA44" d="M512,450.184H256V150.56h256V450.184z"/>
  <path fill="#444242" d="M384,395.972c-46.596,0-84.507-37.909-84.507-84.507s37.91-84.507,84.507-84.507s84.507,37.909,84.507,84.507S430.596,395.972,384,395.972z"/>
  <path fill="#5B5B5F" d="M43.493,311.465c0-46.598,37.91-84.507,84.507-84.507s84.507,37.909,84.507,84.507s-37.91,84.507-84.507,84.507S43.493,358.063,43.493,311.465z"/>
  <rect x="199.725" y="187.882" fill="#CA3486" width="112.54" height="33.391"/>
  <rect x="256" y="187.882" fill="#952967" width="56.27" height="33.391"/>
</svg>
