<?xml version="1.0" encoding="UTF-8" standalone="no"?>
<!-- Uploaded to: SVG Repo, www.svgrepo.com, Generator: SVG Repo Mixer Tools -->

<svg
   version="1.1"
   id="Layer_1"
   viewBox="0 0 512 388.36801"
   xml:space="preserve"
   sodipodi:docname="boombox-svgrepo-com.svg"
   width="512"
   height="388.36801"
   inkscape:version="1.1.1 (3bf5ae0d25, 2021-09-20)"
   xmlns:inkscape="http://www.inkscape.org/namespaces/inkscape"
   xmlns:sodipodi="http://sodipodi.sourceforge.net/DTD/sodipodi-0.dtd"
   xmlns="http://www.w3.org/2000/svg"
   xmlns:svg="http://www.w3.org/2000/svg"><defs
   id="defs27" /><sodipodi:namedview
   id="namedview25"
   pagecolor="#ffffff"
   bordercolor="#666666"
   borderopacity="1.0"
   inkscape:pageshadow="2"
   inkscape:pageopacity="0.0"
   inkscape:pagecheckerboard="0"
   showgrid="false"
   inkscape:zoom="1.4042969"
   inkscape:cx="256"
   inkscape:cy="194.04729"
   inkscape:window-width="1920"
   inkscape:window-height="1009"
   inkscape:window-x="-8"
   inkscape:window-y="-8"
   inkscape:window-maximized="1"
   inkscape:current-layer="Layer_1" />
<polygon
   style="fill:#a6a5ab"
   points="448.683,95.208 63.317,95.208 63.317,167.256 29.925,167.256 29.925,61.816 482.075,61.816 482.075,167.256 448.683,167.256 "
   id="polygon2"
   transform="translate(0,-61.816)" />
<polygon
   style="fill:#7f7f80"
   points="448.683,95.208 256.557,95.208 256,61.816 482.075,61.816 482.075,167.256 448.683,167.256 "
   id="polygon4"
   transform="translate(0,-61.816)" />
<rect
   x="239.304"
   y="65.337997"
   style="fill:#ca3486"
   width="33.390999"
   height="35.092999"
   id="rect6" />
<rect
   x="183.02901"
   y="65.337997"
   style="fill:#e694c4"
   width="33.390999"
   height="35.092999"
   id="rect8" />
<rect
   x="295.57999"
   y="65.337997"
   style="fill:#952967"
   width="33.390999"
   height="35.092999"
   id="rect10" />
<path
   style="fill:#f1d849"
   d="M 512,388.368 H 0 V 88.744 h 512 z"
   id="path12" />
<path
   style="fill:#e8ba44"
   d="M 512,388.368 H 256 V 88.744 h 256 z"
   id="path14" />
<path
   style="fill:#444242"
   d="m 384,334.156 c -46.596,0 -84.507,-37.909 -84.507,-84.507 0,-46.598 37.91,-84.507 84.507,-84.507 46.597,0 84.507,37.909 84.507,84.507 0,46.598 -37.911,84.507 -84.507,84.507 z"
   id="path16" />
<path
   style="fill:#5b5b5f"
   d="m 43.493,249.649 c 0,-46.598 37.91,-84.507 84.507,-84.507 46.597,0 84.507,37.909 84.507,84.507 0,46.598 -37.91,84.507 -84.507,84.507 -46.597,0 -84.507,-37.909 -84.507,-84.507 z"
   id="path18" />
<rect
   x="199.72501"
   y="126.066"
   style="fill:#ca3486"
   width="112.54"
   height="33.390999"
   id="rect20" />
<rect
   x="256"
   y="126.066"
   style="fill:#952967"
   width="56.27"
   height="33.390999"
   id="rect22" />
</svg>
